<svg xmlns="http://www.w3.org/2000/svg" xmlns:xlink="http://www.w3.org/1999/xlink" viewBox="0 0 1863.34 1663.2"><defs><style>.cls-1{fill:url(#linear-gradient);}.cls-2{fill:url(#linear-gradient-2);}.cls-3{fill:none;stroke:#513a49;stroke-linecap:round;stroke-linejoin:round;stroke-width:36px;}.cls-4{fill:#ffd7d7;}.cls-5{fill:#724a4a;}.cls-6{fill:#bc509d;}</style><linearGradient id="linear-gradient" x1="489.93" y1="1607.86" x2="489.93" gradientUnits="userSpaceOnUse"><stop offset="0" stop-color="#99868e"/><stop offset="1" stop-color="#6baea9"/></linearGradient><linearGradient id="linear-gradient-2" x1="1378.18" y1="1625.5" x2="1378.18" y2="0.01" xlink:href="#linear-gradient"/></defs><g id="Layer_2" data-name="Layer 2"><g id="Layer_7" data-name="Layer 7"><path class="cls-1" d="M363.59,1061s-281.94,93.55-175.83,242.77C296.45,1456.61,575,1153.64,575,1153.64s-275.53,282.77-101.91,330.14c163.06,44.49,223.58-152.39,223.58-152.39-11.56,5-69.18,232.35,65.33,271.15,188.51,54.37,173.63-326.3,173.63-326.3V0S400.79.32,331,535.77a407.51,407.51,0,0,0,21.61,193.57c15,40.62,34.57,84.62,55.89,108.6,35,39.37-61.63,40.36-159.8,55.2C147.94,908.38,31.15,887.73,45.1,1033.78,60.74,1197.6,363.59,1061,363.59,1061Z"/><path class="cls-2" d="M1493.81,1056.33s291.74,98.21,185.63,247.43c-108.69,152.85-331-95-331-95s200.29,182.93,45.67,275C1267.44,1559.22,1156.06,1304.41,1137,1250a1.37,1.37,0,0,1,2.5-1.1c27.63,51.3,95,330.95-13.68,367.35-225.06,75.4-194.62-334.69-194.21-340V1.39A1.37,1.37,0,0,1,933,0c31.73.51,598.41,18.13,610.48,635.67l.11,3.22c.39,8.9,9,81.14-92,219.4-23.3,31.9,57.65,38,186.86,38,105.54,0,210.57-5.72,183.66,137.5C1795.75,1174,1493.81,1056.33,1493.81,1056.33Z"/><line class="cls-3" x1="701.16" y1="544.12" x2="788.07" y2="637.35"/><line class="cls-3" x1="788.07" y1="544.12" x2="701.16" y2="637.35"/><line class="cls-3" x1="1081.89" y1="544.12" x2="1173.82" y2="633.46"/><line class="cls-3" x1="1173.82" y1="544.12" x2="1081.89" y2="633.46"/><path class="cls-4" d="M686.51,965.6l-4.74,25A13.83,13.83,0,0,0,695.36,1007h13.46a13.84,13.84,0,0,0,13.59-11.26l6.71-35.31a13.82,13.82,0,0,1,13.59-11.25h8.71A13.83,13.83,0,0,1,765,965.6l-23.47,123.65a13.84,13.84,0,0,1-13.6,11.26H719.2a13.84,13.84,0,0,1-13.6-16.39l5.2-27.7A13.84,13.84,0,0,0,697.2,1040H683.81a13.84,13.84,0,0,0-13.6,11.26l-7.18,38a13.82,13.82,0,0,1-13.59,11.27h-8.59a13.85,13.85,0,0,1-13.6-16.42l23.48-123.65a13.83,13.83,0,0,1,13.59-11.25h8.59A13.83,13.83,0,0,1,686.51,965.6Z"/><path class="cls-4" d="M806.12,1072.7l-8.74,21.54a10.05,10.05,0,0,1-9.31,6.27h-16a10,10,0,0,1-9.15-14.19l59.42-131.23a10,10,0,0,1,9.15-5.9H862.4a10,10,0,0,1,10,9.29l9.81,131.23a10,10,0,0,1-10,10.8H855a10,10,0,0,1-10-9.79l-.38-14.5a10,10,0,0,0-10-9.78H815.43A10.06,10.06,0,0,0,806.12,1072.7Zm27.19-33.7a10,10,0,0,0,10-10.32l-.49-18.43c-.26-8.42-.32-22.52-.69-32.44h-.45c-3.72,9.92-8.3,24.23-11.81,32.46l-5.94,15a10,10,0,0,0,9.34,13.74Z"/><path class="cls-4" d="M995.77,1085.42A15.05,15.05,0,0,1,983.25,1101a129.18,129.18,0,0,1-21.36,1.6c-41.07,0-62.29-28.21-62.29-60.74,0-37.49,15.52-63.84,37.22-79,15-10.88,32.78-15.66,52.46-15.66a93.61,93.61,0,0,1,11.54.72,15,15,0,0,1,12.39,19.54l-.67,2.09a15.07,15.07,0,0,1-16.41,10.31,76.57,76.57,0,0,0-10.4-.69A42,42,0,0,0,958,989.34c-11,9.91-18.56,26.09-18.56,47.41s11.43,34,31.87,34c2.71,0,5.42-.13,8-.38a15,15,0,0,1,16.4,14.31Z"/><path class="cls-4" d="M1049.23,949.19h16.83a9.46,9.46,0,0,1,9.3,11.23l-10.51,55.29h.67c4.26-7.52,8.55-13.22,12.71-19.33l30.49-43.19a9.48,9.48,0,0,1,7.74-4h19a9.46,9.46,0,0,1,7.25,15.55l-39.08,46.56a9.45,9.45,0,0,0-1.74,9.05l22.35,67.73a9.47,9.47,0,0,1-9,12.43h-19.38a9.47,9.47,0,0,1-9.11-6.9l-10.86-38.47a9.46,9.46,0,0,0-16-3.91h0a9.47,9.47,0,0,0-2.39,4.67l-7.2,36.95a9.46,9.46,0,0,1-9.29,7.66H1024.1a9.47,9.47,0,0,1-9.3-11.23l25.14-132.39A9.45,9.45,0,0,1,1049.23,949.19Z"/><path class="cls-4" d="M1141.78,1078.24a16.25,16.25,0,0,1,19.63-10,69.48,69.48,0,0,0,18.54,2.56c10.55.22,19.9-4.23,19.9-13.62,0-8-6.33-12.38-18.24-19.83-13.89-8.86-27.63-20.74-27.63-39.32,0-31.5,26-50.88,60-50.88a108.42,108.42,0,0,1,15,1,16.23,16.23,0,0,1,13.15,21.45h0a16.14,16.14,0,0,1-18.48,10.52,53,53,0,0,0-11.93-1.14c-12.68,0-19.48,5.7-19.48,13.31,0,6.8,7.46,11.52,19.42,19.45,16.78,10,26.79,22.69,26.79,38.63,0,35.71-28.57,52.26-60.71,52.26a107.06,107.06,0,0,1-24.44-2.59,16.23,16.23,0,0,1-11.57-21.39Z"/><line class="cls-3" x1="895.61" y1="577.39" x2="983.58" y2="577.39"/><path class="cls-5" d="M1292.32,293.05a9.93,9.93,0,0,0-17.76,1.9c-10.63,29.42-28,85-13.22,99.7,26.46,26.46,70.22,18.52,70.22-24C1331.56,357.66,1307,316.46,1292.32,293.05Z"/><path class="cls-5" d="M118.36,857a9.1,9.1,0,0,0-1.55-16.27C88,829.83,30.8,811,15.63,825.8c-26.74,26.18-19.28,70,23.26,70.48C52.14,896.42,95.09,871.25,118.36,857Z"/><path class="cls-5" d="M206.83,837.29a9.09,9.09,0,0,0,7.5-14.51C196,798,158.1,751.22,137.3,755.5c-36.65,7.55-54.09,48.46-18.56,71.86C129.8,834.64,179.54,836.71,206.83,837.29Z"/><path class="cls-5" d="M1660.57,841.93a9.09,9.09,0,0,0,7,14.74c30.82.29,91-1.67,100.14-20.84,16.09-33.77-6-72.37-46.1-58.16C1709.16,782.1,1677.5,820.52,1660.57,841.93Z"/><path class="cls-5" d="M1752.94,869.37c-6,3.32-5.12,11.39,1.49,13.62,26.94,9.07,80.33,24.8,94.44,12.35,24.87-21.94,17.77-58.63-21.92-59C1814.6,836.28,1774.6,857.4,1752.94,869.37Z"/><path class="cls-5" d="M928.89,1553.17c-2.42-6.42-10.53-6.71-13.69-.48-12.84,25.35-36.07,75.93-25.77,91.69,18.14,27.75,55.47,26,61.49-13.24C952.8,1618.93,937.63,1576.32,928.89,1553.17Z"/><path class="cls-5" d="M377.65,1372.48c2.17-6.51-3.95-11.85-10.32-9-25.95,11.59-75.86,36.23-77.79,55-3.41,33,26.69,55.14,56.08,28.48C354.77,1438.6,369.85,1396,377.65,1372.48Z"/><path class="cls-5" d="M1500.05,1366.27c-6.11-3.12-12.31,2.12-10.45,8.85,7.56,27.4,24.4,80.45,42.62,85.17,32.1,8.33,58.53-18.09,36.59-51.16C1562,1398.83,1522.09,1377.52,1500.05,1366.27Z"/><path class="cls-5" d="M1326.27,218.87a7,7,0,0,0-11,5.72c-.14,23.55,1.58,71.6,17.63,77.94,27.82,11,59.4-7.86,47.52-38.35C1376.68,254.49,1343.69,230.85,1326.27,218.87Z"/><path class="cls-6" d="M1267.68,377.93c.76-3.12,6.53-4.42,9.38-2.93a36.75,36.75,0,0,0,19.4,4.44,57.57,57.57,0,0,0,20.11-5.52,3.55,3.55,0,0,1,5,4c-2.23,8.9-8.38,22.49-25.09,21C1267,396.22,1266,384.9,1267.68,377.93Z"/><path class="cls-6" d="M1331.94,282c.58-2.38,5-3.36,7.14-2.23a27.93,27.93,0,0,0,14.75,3.38,43.81,43.81,0,0,0,15.3-4.2,2.7,2.7,0,0,1,3.79,3.07c-1.69,6.77-6.37,17.11-19.09,15.95C1331.43,295.93,1330.66,287.32,1331.94,282Z"/></g></g></svg>