<svg fill="#000000" xmlns="http://www.w3.org/2000/svg" viewBox="0 0 50 50" width="50px" height="50px"><path d="M 28.8125 0.03125 L 0.8125 5.34375 C 0.339844 5.433594 0 5.863281 0 6.34375 L 0 43.65625 C 0 44.136719 0.339844 44.566406 0.8125 44.65625 L 28.8125 49.96875 C 28.875 49.980469 28.9375 50 29 50 C 29.230469 50 29.445313 49.929688 29.625 49.78125 C 29.855469 49.589844 30 49.296875 30 49 L 30 1 C 30 0.703125 29.855469 0.410156 29.625 0.21875 C 29.394531 0.0273438 29.105469 -0.0234375 28.8125 0.03125 Z M 32 11 L 32 23.15625 L 33.75 24.59375 L 49 15.5 L 49 12 C 49 11.449219 48.554688 11 48 11 Z M 14.84375 15.53125 C 17.222656 15.53125 19.15625 16.390625 20.625 18.09375 C 22.09375 19.800781 22.8125 22.023438 22.8125 24.8125 C 22.8125 27.679688 22.054688 29.992188 20.53125 31.75 C 19.007813 33.503906 17.042969 34.40625 14.59375 34.40625 C 12.207031 34.40625 10.253906 33.542969 8.75 31.84375 C 7.246094 30.144531 6.5 27.917969 6.5 25.1875 C 6.5 22.304688 7.253906 19.96875 8.78125 18.1875 C 10.308594 16.40625 12.324219 15.53125 14.84375 15.53125 Z M 49 17.84375 L 34.1875 26.6875 C 34.027344 26.78125 33.832031 26.8125 33.65625 26.8125 C 33.429688 26.8125 33.214844 26.746094 33.03125 26.59375 L 32 25.75 L 32 38 L 34.0625 38 C 34.019531 38.328125 34 38.660156 34 39 C 34 43.410156 37.589844 47 42 47 C 46.410156 47 50 43.410156 50 39 C 50 37.585938 49.617188 36.25 48.96875 35.09375 C 48.972656 35.058594 49 35.035156 49 35 Z M 14.75 19.0625 C 13.433594 19.0625 12.367188 19.605469 11.59375 20.6875 C 10.816406 21.769531 10.4375 23.1875 10.4375 24.96875 C 10.4375 26.773438 10.820313 28.226563 11.59375 29.28125 C 12.371094 30.332031 13.398438 30.84375 14.65625 30.84375 C 15.949219 30.84375 16.957031 30.332031 17.71875 29.3125 C 18.476563 28.292969 18.875 26.878906 18.875 25.0625 C 18.875 23.171875 18.519531 21.707031 17.78125 20.65625 C 17.042969 19.601563 16.027344 19.0625 14.75 19.0625 Z M 42 33 C 45.308594 33 48 35.691406 48 39 C 48 42.308594 45.308594 45 42 45 C 38.691406 45 36 42.308594 36 39 C 36 35.691406 38.691406 33 42 33 Z M 41 34 L 41 41 L 46 41 L 46 39 L 43 39 L 43 34 Z"/></svg>